<?xml version="1.0" encoding="UTF-8"?>
<svg id="Calque_2" data-name="Calque 2" xmlns="http://www.w3.org/2000/svg" viewBox="0 0 617 1016.34">
  <defs>
    <style>
      .cls-1 {
        fill: #2abcaa;
      }

      .cls-2 {
        fill: #16caf4;
      }

      .cls-3 {
        fill: #c75957;
      }

      .cls-4 {
        fill: #f5ead8;
      }

      .cls-5 {
        fill: #009342;
      }

      .cls-6 {
        fill: #8eddae;
      }

      .cls-7 {
        fill: #7ab8ea;
      }

      .cls-8 {
        fill: #1a2a6a;
      }

      .cls-9 {
        fill: #2761c9;
      }

      .cls-10 {
        fill: #eae0d0;
      }

      .cls-11 {
        fill: #5c4df4;
      }

      .cls-12 {
        fill: #1a3f8f;
      }

      .cls-13 {
        fill: #007f3c;
      }

      .cls-14 {
        fill: #ecb5af;
      }

      .cls-15 {
        fill: #1f9288;
      }

      .cls-16 {
        fill: #4a9fd4;
        opacity: .93;
      }

      .cls-17 {
        fill: #f4dece;
      }
    </style>
  </defs>
  <g id="Calque_1-2" data-name="Calque 1">
    <g>
      <polygon class="cls-13" points="609.05 273.64 596.12 256.72 588.43 270.78 597.62 282.82 609.05 273.64"/>
      <g>
        <rect class="cls-4" x="75.91" y="210.04" width="519.1" height="806.3"/>
        <path class="cls-16" d="M2.15,206.72c19.69-56.21,164.85-7.96,232.48-96.35,30.78-40.22,20.08-75.52,58.64-97.43,35.53-20.19,91.84-17.06,117.29,11.56,24.9,28,8.48,67.15,33.8,81.13,16.21,8.95,27.29-4.7,54.17-2.15,48.79,4.62,80.4,56.08,87.97,68.41,18.02,29.35,45.13,94.56,20.87,120.7-48.4,52.16-227.27-130.92-383.21-67.02-71.58,29.33-95.94,93.34-149.52,81.68C30.04,297.55-9.81,240.84,2.15,206.72Z"/>
        <rect class="cls-10" x="104.59" y="167.49" width="59.27" height="85.1"/>
        <polygon class="cls-14" points="80.08 210.04 62.23 221.64 75.66 230.38 88.36 222.12 80.08 210.04"/>
        <polygon class="cls-14" points="75.16 234.92 63.14 252.49 78.9 255.4 87.45 242.9 75.16 234.92"/>
        <polygon class="cls-14" points="93.14 220.97 75.29 232.58 88.73 241.31 101.43 233.05 93.14 220.97"/>
        <polygon class="cls-14" points="74.71 231.2 57.22 219.06 54.21 234.79 66.65 243.43 74.71 231.2"/>
        <polygon class="cls-15" points="399.83 176.25 381.98 187.85 395.41 196.59 408.11 188.33 399.83 176.25"/>
        <polygon class="cls-15" points="394.92 201.13 382.89 218.7 398.65 221.61 407.2 209.1 394.92 201.13"/>
        <polygon class="cls-1" points="412.77 187.3 394 197.34 406.63 207.19 419.99 200.05 412.77 187.3"/>
        <polygon class="cls-15" points="394.46 197.41 376.98 185.26 373.96 201 386.4 209.64 394.46 197.41"/>
        <polygon class="cls-11" points="420.34 139.09 402.49 150.7 415.92 159.44 428.62 151.18 420.34 139.09"/>
        <polygon class="cls-1" points="417.26 164.4 403.78 180.88 419.23 185.12 428.82 173.4 417.26 164.4"/>
        <polygon class="cls-2" points="433.4 150.03 415.55 161.63 428.98 170.37 441.68 162.11 433.4 150.03"/>
        <polygon class="cls-1" points="414.97 160.26 397.48 148.11 394.46 163.85 406.9 172.49 414.97 160.26"/>
        <polygon class="cls-2" points="453.58 114.08 435.73 125.68 449.16 134.42 461.86 126.16 453.58 114.08"/>
        <polygon class="cls-2" points="448.66 138.96 436.64 156.53 452.4 159.44 460.95 146.94 448.66 138.96"/>
        <polygon class="cls-2" points="466.64 125.01 448.79 136.61 462.23 145.35 474.92 137.09 466.64 125.01"/>
        <polygon class="cls-11" points="448.21 135.24 430.72 123.1 427.71 138.83 440.15 147.47 448.21 135.24"/>
        <polygon class="cls-13" points="583.86 270.63 565.43 259.97 563.73 275.9 576.84 283.48 583.86 270.63"/>
        <polygon class="cls-13" points="599.14 287.5 586.21 270.58 578.52 284.64 587.72 296.67 599.14 287.5"/>
        <polygon class="cls-13" points="587.53 269.89 598.32 251.54 582.4 249.72 574.73 262.78 587.53 269.89"/>
        <polygon class="cls-5" points="591.36 235.36 578.43 218.45 570.74 232.5 579.94 244.54 591.36 235.36"/>
        <polygon class="cls-5" points="566.18 232.35 547.75 221.7 546.04 237.63 559.16 245.21 566.18 232.35"/>
        <polygon class="cls-5" points="581.46 249.22 568.53 232.3 560.84 246.36 570.03 258.39 581.46 249.22"/>
        <polygon class="cls-5" points="569.85 231.62 580.63 213.26 564.72 211.44 557.04 224.51 569.85 231.62"/>
        <polygon class="cls-9" points="435.73 104.3 422.8 87.38 415.11 101.44 424.31 113.47 435.73 104.3"/>
        <polygon class="cls-9" points="410.55 101.28 392.11 90.63 390.41 106.56 403.53 114.14 410.55 101.28"/>
        <polygon class="cls-11" points="425.82 118.15 412.89 101.24 405.2 115.29 414.4 127.33 425.82 118.15"/>
        <polygon class="cls-9" points="414.22 100.55 425 82.19 409.08 80.38 401.41 93.44 414.22 100.55"/>
        <polygon class="cls-12" points="419.65 66.78 406.72 49.86 399.03 63.92 408.23 75.96 419.65 66.78"/>
        <polygon class="cls-12" points="398.13 63.03 408.92 44.68 393 42.86 385.33 55.92 398.13 63.03"/>
        <polygon class="cls-3" points="198.76 167.49 182.49 181.39 195.92 190.13 211.13 175.77 198.76 167.49"/>
        <polygon class="cls-3" points="197.93 198.93 185.91 216.5 201.67 219.4 210.22 206.9 197.93 198.93"/>
        <polygon class="cls-3" points="215.91 184.97 198.06 196.58 211.5 205.32 224.19 197.06 215.91 184.97"/>
        <polygon class="cls-3" points="197.48 195.21 179.99 183.06 176.98 198.8 189.42 207.44 197.48 195.21"/>
        <rect class="cls-7" x="497.9" y="358.75" width="63.62" height="76.34"/>
        <rect class="cls-7" x="379.95" y="360.11" width="63.62" height="76.34"/>
        <rect class="cls-7" x="250.33" y="359.05" width="63.62" height="76.34"/>
        <rect class="cls-7" x="500.69" y="502.86" width="63.62" height="76.34"/>
        <path class="cls-17" d="M583.17,571.92c-14.31-3-28.62-6-42.94-9.01-5.1-1.07-10.33-.88-15.36.55l-43.48,12.41c-3.25.93-5.53,4.29-5.53,8.15v31.37c0,4.96,3.71,8.84,7.99,8.35l53.69-6.13c.53-.06,1.07-.05,1.59.02l41.86,5.87c4.34.61,8.16-3.3,8.16-8.33v-35c0-4.06-2.52-7.53-5.98-8.26ZM510.15,603.52c-10.03,3.83-19.51,2.24-21.18-3.57-1.67-5.8,5.11-13.62,15.14-17.45s19.51-2.24,21.18,3.57c1.67,5.81-5.11,13.62-15.14,17.45ZM580.9,599.95c-1.67,5.81-11.15,7.4-21.18,3.57-10.03-3.83-16.81-11.65-15.14-17.45,1.67-5.8,11.15-7.4,21.18-3.57,10.03,3.83,16.81,11.65,15.14,17.45Z"/>
        <rect class="cls-7" x="379.95" y="501.76" width="63.62" height="76.34"/>
        <path class="cls-17" d="M462.43,570.83c-14.31-3-28.62-6-42.94-9.01-5.1-1.07-10.33-.88-15.36.55l-43.48,12.41c-3.25.93-5.53,4.29-5.53,8.15v31.37c0,4.96,3.71,8.84,7.99,8.35l53.69-6.13c.53-.06,1.07-.05,1.59.02l41.86,5.87c4.34.61,8.16-3.3,8.16-8.33v-35c0-4.06-2.52-7.53-5.98-8.26ZM389.41,602.43c-10.03,3.83-19.51,2.24-21.18-3.57-1.67-5.8,5.11-13.62,15.14-17.45,10.03-3.83,19.51-2.24,21.18,3.57,1.67,5.81-5.11,13.62-15.14,17.45ZM460.16,598.86c-1.67,5.8-11.15,7.4-21.18,3.57-10.03-3.83-16.81-11.65-15.14-17.45,1.67-5.8,11.15-7.4,21.18-3.57,10.03,3.83,16.81,11.65,15.14,17.45Z"/>
        <rect class="cls-7" x="247" y="503.95" width="63.62" height="76.34"/>
        <path class="cls-17" d="M329.48,573.01c-14.31-3-28.62-6-42.94-9.01-5.1-1.07-10.33-.88-15.36.55-14.49,4.14-28.99,8.27-43.48,12.41-3.25.93-5.53,4.29-5.53,8.15v31.37c0,4.96,3.71,8.84,7.99,8.35l53.69-6.13c.53-.06,1.07-.05,1.59.02l41.86,5.87c4.34.61,8.16-3.3,8.16-8.33v-35c0-4.06-2.51-7.53-5.98-8.26ZM256.46,604.62c-10.03,3.83-19.51,2.24-21.18-3.57-1.67-5.8,5.11-13.62,15.14-17.45,10.03-3.83,19.51-2.24,21.18,3.57,1.67,5.8-5.11,13.62-15.14,17.45ZM327.21,601.05c-1.67,5.81-11.15,7.4-21.18,3.57-10.03-3.83-16.81-11.65-15.14-17.45,1.67-5.81,11.15-7.4,21.18-3.57s16.81,11.65,15.14,17.45Z"/>
        <rect class="cls-7" x="235.43" y="643.47" width="63.62" height="76.34"/>
        <path class="cls-8" d="M164.4,1002.61h-67.16v-83.83l24.6-3.43c5.96-.83,12-.83,17.97,0l24.6,3.43v83.83Z"/>
        <path class="cls-17" d="M317.91,712.53c-14.31-3-28.62-6-42.94-9.01-5.1-1.07-10.33-.88-15.36.55l-43.48,12.41c-3.25.93-5.53,4.29-5.53,8.15v31.37c0,4.96,3.71,8.84,7.99,8.35l53.69-6.13c.53-.06,1.07-.05,1.59.02l41.86,5.87c4.34.61,8.16-3.3,8.16-8.33v-35c0-4.06-2.52-7.53-5.98-8.26ZM244.89,744.13c-10.03,3.83-19.51,2.24-21.18-3.57-1.67-5.8,5.11-13.62,15.14-17.45s19.51-2.24,21.18,3.57c1.67,5.81-5.11,13.62-15.14,17.45ZM315.64,740.56c-1.67,5.81-11.15,7.4-21.18,3.57-10.03-3.83-16.81-11.65-15.14-17.45,1.67-5.8,11.15-7.4,21.18-3.57,10.03,3.83,16.81,11.65,15.14,17.45Z"/>
        <rect class="cls-7" x="126.26" y="502.86" width="63.62" height="76.34"/>
        <path class="cls-17" d="M208.74,571.92c-14.31-3-28.62-6-42.94-9.01-5.1-1.07-10.33-.88-15.36.55l-43.48,12.41c-3.25.93-5.53,4.29-5.53,8.15v31.37c0,4.96,3.71,8.84,7.99,8.35l53.69-6.13c.53-.06,1.07-.05,1.59.02l41.86,5.87c4.34.61,8.16-3.3,8.16-8.33v-35c0-4.06-2.52-7.53-5.98-8.26ZM135.72,603.52c-10.03,3.83-19.51,2.24-21.18-3.57-1.67-5.8,5.11-13.62,15.14-17.45,10.03-3.83,19.51-2.24,21.18,3.57,1.67,5.81-5.11,13.62-15.14,17.45ZM206.47,599.95c-1.67,5.81-11.15,7.4-21.18,3.57-10.03-3.83-16.81-11.65-15.14-17.45,1.67-5.8,11.15-7.4,21.18-3.57s16.81,11.65,15.14,17.45Z"/>
        <path class="cls-17" d="M240.35,783.45c-14.36-.92-29.2,31.04-33.52,56.02-2.63,15.17-5.94,34.28,7.02,46.75,8.5,8.18,24.3,13.81,35.08,9,8.65-3.86,10.79-12.98,17.15-12.4,4.51.41,4.7,5.1,10.91,9.59,8.62,6.22,23.03,7.87,32.74,2.81,8.86-4.61,10.88-13.28,15.59-12.4,4.47.83,4.51,8.97,8.91,9.59,4.49.63,5.78-7.64,12.14-9.59,10.82-3.32,19.79,16.72,35.86,15.39,6.67-.55,7.41-4.19,18.71-5.8,2.42-.34,7.44-.89,16.37,0,18.54,1.85,23.35,6.87,28.84,5.86,14.55-2.68,24.39-36.02,18.71-64.72-4.88-24.68-22.37-51.66-38.98-51.35-10.16.19-16.37,6.16-16.37,6.16-5.37,5.16-4.27,10.6-7.8,11.64-6.45,1.89-12.08-15.76-23.39-16.55-12.42-.86-21.61,19.33-28.84,16.55-3.98-1.53-1.98-7.93-7.8-11.64-5.01-3.2-12.35-2.17-17.15,0-9.36,4.23-8.11,12.41-14.03,13.63-9.3,1.92-15.68-17.51-29.62-17.26-5.66.1-11.37,3.42-14.03,7.65-4.52,7.17.37,15.93-1.56,16.77-3.21,1.4-12.26-24.89-24.95-25.7Z"/>
        <path class="cls-6" d="M253.31,788.24c-12.4-.84-25.22,28.42-28.96,51.29-2.27,13.89-5.13,31.38,6.06,42.81,7.34,7.49,20.99,12.65,30.3,8.24,7.47-3.53,9.32-11.88,14.81-11.35,3.89.37,4.06,4.67,9.43,8.78,7.44,5.69,19.89,7.2,28.28,2.57,7.65-4.22,9.4-12.16,13.47-11.35,3.86.76,3.89,8.21,7.7,8.78,3.88.58,4.99-6.99,10.48-8.78,9.35-3.04,17.09,15.31,30.98,14.09,5.76-.51,6.4-3.84,16.16-5.31,2.09-.31,6.43-.82,14.14,0,16.01,1.7,20.17,6.29,24.92,5.37,12.57-2.46,21.06-32.98,16.16-59.26-4.22-22.6-19.33-47.3-33.67-47.02-8.78.18-14.14,5.64-14.14,5.64-4.64,4.73-3.69,9.71-6.73,10.66-5.57,1.73-10.44-14.43-20.2-15.15-10.73-.79-18.66,17.7-24.92,15.15-3.44-1.4-1.71-7.26-6.73-10.66-4.33-2.93-10.67-1.99-14.81,0-8.08,3.88-7,11.36-12.12,12.48-8.03,1.76-13.54-16.04-25.59-15.81-4.89.09-9.82,3.13-12.12,7-3.9,6.56.32,14.59-1.35,15.36-2.77,1.28-10.59-22.79-21.55-23.53Z"/>
        <path class="cls-17" d="M411.37,855.47c.52-10.71,13.97-17.49,13.98-25.98,0-11.33-10.53-13.26-13.86-21.47l.4-24.04c-.42-7.32-5.38-2.24-6.06,0-1.91,6.21.85,14.77-.27,37.76-.52,10.71-7.37,17.48-7.37,25.97,0,10.57,5.1,12.96,7.28,19.9l-.43,25.62c.42,7.32,5.38,2.24,6.06,0,1.91-6.21-.85-14.77.27-37.76Z"/>
        <path class="cls-17" d="M333.76,845.78c0-8.49-6.85-15.26-7.37-25.97-1.12-22.99,1.64-31.55-.27-37.76-.69-2.24-5.64-7.32-6.06,0l.4,24.04c-3.33,8.21-13.87,10.14-13.86,21.47,0,8.49,13.46,15.26,13.98,25.98,1.12,22.99-1.64,31.55.27,37.76.69,2.24,5.64,7.32,6.06,0l-.43-25.62c2.18-6.94,7.29-9.33,7.28-19.9Z"/>
        <path class="cls-17" d="M282,850.52c0-8.49-6.85-15.26-7.37-25.97-1.12-22.99,1.64-31.55-.27-37.76-.69-2.24-5.64-7.32-6.06,0l.4,24.04c-3.33,8.21-13.87,10.14-13.86,21.47,0,8.49,13.46,15.26,13.98,25.98,1.12,22.99-1.64,31.55.27,37.76.69,2.24,5.64,7.32,6.06,0l-.43-25.62c2.18-6.94,7.29-9.33,7.28-19.9Z"/>
        <path class="cls-17" d="M363.02,857.15c.52-10.71,13.97-17.49,13.98-25.98,0-11.33-10.53-13.26-13.86-21.47l.4-24.04c-.42-7.32-5.38-2.24-6.06,0-1.91,6.21.85,14.77-.27,37.76-.52,10.71-7.37,17.48-7.37,25.97,0,10.57,5.1,12.96,7.28,19.9l-.43,25.62c.42,7.32,5.38,2.24,6.06,0,1.91-6.21-.85-14.77.27-37.76Z"/>
        <path class="cls-6" d="M128.47,797.67c-19.42-.09-51.23,67.51-25.35,93.41,12.61,12.62,38.63,15.06,50.95,3.82,24.32-22.17-5.18-97.14-25.6-97.24Z"/>
        <path class="cls-17" d="M137.1,855.11c0-7.77-6.27-13.97-6.75-23.78-1.03-21.05,1.5-28.89-.25-34.58-.63-2.05-5.17-6.7-5.55,0l.37,22.01c-3.05,7.52-12.7,9.28-12.69,19.66,0,7.77,12.32,13.98,12.8,23.79,1.03,21.05-1.5,28.89.25,34.58.63,2.05,5.17,6.7,5.55,0l-.39-23.46c2-6.35,6.67-8.54,6.67-18.22Z"/>
        <path class="cls-6" d="M523.92,647.87c-19.42-.09-51.23,67.51-25.35,93.41,12.61,12.62,38.63,15.06,50.95,3.82,24.32-22.17-5.18-97.14-25.6-97.24Z"/>
        <path class="cls-17" d="M532.55,705.32c0-7.77-6.27-13.97-6.75-23.78-1.03-21.05,1.5-28.89-.25-34.58-.63-2.05-5.17-6.7-5.55,0l.37,22.01c-3.05,7.52-12.7,9.28-12.69,19.66,0,7.77,12.32,13.98,12.8,23.79,1.03,21.05-1.5,28.89.25,34.58.63,2.05,5.17,6.7,5.55,0l-.39-23.46c2-6.35,6.67-8.54,6.67-18.22Z"/>
        <g>
          <g>
            <polygon class="cls-4" points="132.91 9.25 119.91 20.34 128.22 68.51 141.6 69.57 149.37 19.17 132.91 9.25"/>
            <polygon class="cls-4" points="135.95 122.29 148.95 111.19 140.64 63.03 127.26 61.97 119.5 112.36 135.95 122.29"/>
          </g>
          <g>
            <polygon class="cls-4" points="190.74 55.6 179.68 42.58 131.49 50.79 130.41 64.17 180.79 72.03 190.74 55.6"/>
            <polygon class="cls-4" points="77.7 58.41 88.76 71.43 136.95 63.22 138.04 49.84 87.65 41.97 77.7 58.41"/>
          </g>
        </g>
        <g>
          <ellipse class="cls-4" cx="130.43" cy="174.79" rx="49.83" ry="34.14"/>
          <path class="cls-4" d="M85.19,161.77c16.78-19.94,34.57-39.12,42.31-65.87,1.08-3.72,4.46-4.11,5.83-.62,8.19,20.87,31.63,46.94,42.34,65.55-30.16.31-60.32.62-90.48.94Z"/>
        </g>
      </g>
    </g>
  </g>
</svg>