<svg width="2551" height="391" viewBox="0 0 2551 391" fill="none" xmlns="http://www.w3.org/2000/svg">
<path d="M0 85.5482C0 38.3013 38.3284 0 85.609 0H2462.69C2509.97 0 2548.29 38.3013 2548.29 85.5482V347.896C2548.29 371.52 2529.13 390.67 2505.49 390.67H42.8045C19.1642 390.67 0 371.52 0 347.896V85.5482Z" fill="white"/>
<path d="M2505.49 383.541V390.67H42.8045V383.541H2505.49ZM2541.16 347.896V85.5482C2541.16 42.2385 2506.03 7.12902 2462.68 7.12902H85.609C42.2685 7.12902 7.13408 42.2385 7.13408 85.5482V347.896C7.13408 367.582 23.1043 383.541 42.8045 383.541V390.67L41.7009 390.656C18.9374 390.081 0.589997 371.746 0.0139338 348.999L0 347.896V85.5482C9.95424e-07 39.0396 37.1399 1.19915 83.3991 0.0278477L85.609 0H2462.68C2509.97 0 2548.29 38.3013 2548.29 85.5482V347.896C2548.29 371.52 2529.13 390.67 2505.49 390.67V383.541C2525.19 383.541 2541.16 367.582 2541.16 347.896Z" fill="black"/>
<path d="M148.402 6.08703L2480.08 6.08716C2487.57 6.08716 2493.65 12.1625 2493.65 19.6573C2493.65 27.1521 2487.57 33.2275 2480.08 33.2275L148.402 33.2274C140.908 33.2268 134.832 27.1516 134.832 19.6572C134.832 12.1628 140.908 6.08759 148.402 6.08703Z" fill="#FF1313"/>
<path d="M202.629 6.17041H62.5661L7.07382 119.372V240.838L179.788 205.646C193.08 202.938 202.629 191.247 202.629 177.681V6.17041Z" fill="#FF1313"/>
<path d="M348.539 134.179C348.539 119.99 360.046 108.487 374.24 108.487H561.853C576.047 108.487 587.553 119.99 587.553 134.179V348.709C587.553 362.898 576.047 374.401 561.853 374.401H374.24C360.046 374.401 348.539 362.898 348.539 348.709V134.179Z" fill="#FF2C2C"/>
<path d="M345.327 348.709V134.179C345.327 118.216 358.271 105.276 374.24 105.276V108.487C360.046 108.487 348.539 119.99 348.539 134.179V348.709C348.539 362.898 360.046 374.401 374.24 374.401H561.853L562.516 374.393C576.404 374.041 587.553 362.676 587.553 348.709V134.179C587.553 120.212 576.404 108.847 562.516 108.495L561.853 108.487V105.276C577.821 105.276 590.766 118.216 590.766 134.179V348.709C590.766 364.672 577.821 377.612 561.853 377.612H374.24C358.271 377.612 345.327 364.672 345.327 348.709ZM561.853 105.276V108.487H374.24V105.276H561.853Z" fill="black"/>
<path d="M363.959 147.668C363.959 140.573 369.713 134.822 376.81 134.822H427.568C434.665 134.822 440.418 140.573 440.418 147.668V270.99C440.418 278.085 434.665 283.836 427.568 283.836H376.81C369.713 283.836 363.959 278.085 363.959 270.99V147.668Z" fill="#ECF0FF"/>
<path d="M487.964 147.668C487.964 140.573 493.717 134.822 500.814 134.822H551.573C558.67 134.822 564.423 140.573 564.423 147.668V270.99C564.423 278.085 558.67 283.836 551.573 283.836H500.814C493.717 283.836 487.964 278.085 487.964 270.99V147.668Z" fill="#ECF0FF"/>
<path d="M465.798 108.487L465.798 374.401H462.585L462.585 108.487H465.798Z" fill="black"/>
<path d="M574.703 382.108H359.462V375.685H574.703V382.108Z" fill="#FFDE21"/>
<path d="M489.249 291.544C489.249 295.8 485.797 299.251 481.539 299.251C477.281 299.251 473.829 295.8 473.829 291.544C473.829 287.287 477.281 283.836 481.539 283.836C485.797 283.836 489.249 287.287 489.249 291.544Z" fill="#D9E6DC"/>
<path d="M487.964 291.544C487.964 287.996 485.088 285.121 481.539 285.121C477.991 285.121 475.114 287.996 475.114 291.544C475.114 295.091 477.991 297.967 481.539 297.967V299.251C477.281 299.251 473.829 295.8 473.829 291.544C473.829 287.287 477.281 283.836 481.539 283.836C485.797 283.836 489.249 287.287 489.249 291.544C489.249 295.8 485.797 299.251 481.539 299.251V297.967C485.088 297.967 487.964 295.091 487.964 291.544Z" fill="black"/>
<path d="M2345.94 19.6575L2523.07 23.91L2544.29 125.234L2541.44 236.557L2369.1 203.437C2355.66 200.854 2345.94 189.095 2345.94 175.41V19.6575Z" fill="#FF1313"/>
<path d="M1455.87 134.179C1455.87 119.99 1467.38 108.487 1481.57 108.487H1669.18C1683.38 108.487 1694.88 119.99 1694.88 134.179V348.709C1694.88 362.898 1683.38 374.401 1669.18 374.401H1481.57C1467.38 374.401 1455.87 362.898 1455.87 348.709V134.179Z" fill="#FF2C2C"/>
<path d="M1452.66 348.709V134.179C1452.66 118.216 1465.6 105.276 1481.57 105.276V108.487C1467.38 108.487 1455.87 119.99 1455.87 134.179V348.709C1455.87 362.898 1467.38 374.401 1481.57 374.401H1669.18L1669.85 374.393C1683.73 374.041 1694.88 362.676 1694.88 348.709V134.179C1694.88 120.212 1683.73 108.847 1669.85 108.495L1669.18 108.487V105.276C1685.15 105.276 1698.1 118.216 1698.1 134.179V348.709C1698.1 364.672 1685.15 377.612 1669.18 377.612H1481.57C1465.6 377.612 1452.66 364.672 1452.66 348.709ZM1669.18 105.276V108.487H1481.57V105.276H1669.18Z" fill="black"/>
<path d="M1471.29 147.668C1471.29 140.573 1477.04 134.822 1484.14 134.822H1534.9C1542 134.822 1547.75 140.573 1547.75 147.668V270.99C1547.75 278.085 1542 283.836 1534.9 283.836H1484.14C1477.04 283.836 1471.29 278.085 1471.29 270.99V147.668Z" fill="#ECF0FF"/>
<path d="M1595.3 147.668C1595.3 140.573 1601.05 134.822 1608.15 134.822H1658.9C1666 134.822 1671.75 140.573 1671.75 147.668V270.99C1671.75 278.085 1666 283.836 1658.9 283.836H1608.15C1601.05 283.836 1595.3 278.085 1595.3 270.99V147.668Z" fill="#ECF0FF"/>
<path d="M1573.13 108.487L1573.13 374.401H1569.92L1569.92 108.487H1573.13Z" fill="black"/>
<path d="M1682.03 382.108H1466.79V375.685H1682.03V382.108Z" fill="#FFDE21"/>
<path d="M1596.58 291.544C1596.58 295.8 1593.13 299.251 1588.87 299.251C1584.61 299.251 1581.16 295.8 1581.16 291.544C1581.16 287.287 1584.61 283.836 1588.87 283.836C1593.13 283.836 1596.58 287.287 1596.58 291.544Z" fill="#D9E6DC"/>
<path d="M1595.3 291.544C1595.3 287.996 1592.42 285.121 1588.87 285.121C1585.32 285.121 1582.45 287.996 1582.45 291.544C1582.45 295.091 1585.32 297.967 1588.87 297.967V299.251C1584.61 299.251 1581.16 295.8 1581.16 291.544C1581.16 287.287 1584.61 283.836 1588.87 283.836C1593.13 283.836 1596.58 287.287 1596.58 291.544C1596.58 295.8 1593.13 299.251 1588.87 299.251V297.967C1592.42 297.967 1595.3 295.091 1595.3 291.544Z" fill="black"/>
<path d="M890.789 134.179C890.789 119.99 902.296 108.487 916.49 108.487H1104.1C1118.3 108.487 1129.8 119.99 1129.8 134.179V348.709C1129.8 362.898 1118.3 374.401 1104.1 374.401H916.49C902.296 374.401 890.789 362.898 890.789 348.709V134.179Z" fill="#FF2C2C"/>
<path d="M887.577 348.709V134.179C887.577 118.216 900.521 105.276 916.49 105.276V108.487C902.296 108.487 890.789 119.99 890.789 134.179V348.709C890.789 362.898 902.296 374.401 916.49 374.401H1104.1L1104.77 374.393C1118.65 374.041 1129.8 362.676 1129.8 348.709V134.179C1129.8 120.212 1118.65 108.847 1104.77 108.495L1104.1 108.487V105.276C1120.07 105.276 1133.02 118.216 1133.02 134.179V348.709C1133.02 364.672 1120.07 377.612 1104.1 377.612H916.49C900.521 377.612 887.577 364.672 887.577 348.709ZM1104.1 105.276V108.487H916.49V105.276H1104.1Z" fill="black"/>
<path d="M906.209 147.668C906.209 140.573 911.963 134.822 919.06 134.822H969.818C976.915 134.822 982.668 140.573 982.668 147.668V270.99C982.668 278.085 976.915 283.836 969.818 283.836H919.06C911.963 283.836 906.209 278.085 906.209 270.99V147.668Z" fill="#ECF0FF"/>
<path d="M1030.21 147.668C1030.21 140.573 1035.97 134.822 1043.06 134.822H1093.82C1100.92 134.822 1106.67 140.573 1106.67 147.668V270.99C1106.67 278.085 1100.92 283.836 1093.82 283.836H1043.06C1035.97 283.836 1030.21 278.085 1030.21 270.99V147.668Z" fill="#ECF0FF"/>
<path d="M1008.05 108.487L1008.05 374.401H1004.83L1004.83 108.487H1008.05Z" fill="black"/>
<path d="M1116.95 382.108H901.712V375.685H1116.95V382.108Z" fill="#FFDE21"/>
<path d="M1031.5 291.544C1031.5 295.8 1028.05 299.251 1023.79 299.251C1019.53 299.251 1016.08 295.8 1016.08 291.544C1016.08 287.287 1019.53 283.836 1023.79 283.836C1028.05 283.836 1031.5 287.287 1031.5 291.544Z" fill="#D9E6DC"/>
<path d="M1030.21 291.544C1030.21 287.996 1027.34 285.121 1023.79 285.121C1020.24 285.121 1017.36 287.996 1017.36 291.544C1017.36 295.091 1020.24 297.967 1023.79 297.967V299.251C1019.53 299.251 1016.08 295.8 1016.08 291.544C1016.08 287.287 1019.53 283.836 1023.79 283.836C1028.05 283.836 1031.5 287.287 1031.5 291.544C1031.5 295.8 1028.05 299.251 1023.79 299.251V297.967C1027.34 297.967 1030.21 295.091 1030.21 291.544Z" fill="black"/>
<path d="M2420.23 205.164C2421.67 205.164 2422.75 203.856 2422.47 202.447L2395.46 62.8937C2391.57 42.761 2373.94 28.2192 2353.43 28.2192L2325.39 28.2192C2324.13 28.2192 2323.11 29.2414 2323.11 30.5024L2323.11 202.881C2323.11 204.142 2324.13 205.164 2325.39 205.164L2420.23 205.164Z" fill="#ECF0FF"/>
<path d="M2420.23 209.445C2424.23 209.445 2427.27 205.915 2426.74 202.012L2426.68 201.633L2399.67 62.0792C2395.38 39.9339 2375.99 23.9385 2353.44 23.9384L2325.39 23.9384C2321.77 23.9387 2318.83 26.8771 2318.83 30.5019L2318.83 202.881C2318.83 206.506 2321.77 209.444 2325.39 209.445L2420.23 209.445ZM2325.39 205.164C2324.21 205.164 2323.24 204.266 2323.12 203.115L2323.11 202.881L2323.11 30.5019L2323.12 30.2678C2323.23 29.1942 2324.09 28.3401 2325.16 28.2304L2325.39 28.2193L2353.44 28.2193C2373.3 28.2194 2390.46 41.8663 2395.06 61.0229L2395.46 62.893L2422.47 202.447C2422.75 203.855 2421.67 205.164 2420.23 205.164L2325.39 205.164Z" fill="black"/>
<path d="M1998.12 134.179C1998.12 119.99 2009.63 108.487 2023.82 108.487H2211.43C2225.63 108.487 2237.13 119.99 2237.13 134.179V348.709C2237.13 362.898 2225.63 374.401 2211.43 374.401H2023.82C2009.63 374.401 1998.12 362.898 1998.12 348.709V134.179Z" fill="#FF2C2C"/>
<path d="M1994.91 348.709V134.179C1994.91 118.216 2007.85 105.276 2023.82 105.276V108.487C2009.63 108.487 1998.12 119.99 1998.12 134.179V348.709C1998.12 362.898 2009.63 374.401 2023.82 374.401H2211.43L2212.1 374.393C2225.98 374.041 2237.13 362.676 2237.13 348.709V134.179C2237.13 120.212 2225.98 108.847 2212.1 108.495L2211.43 108.487V105.276C2227.4 105.276 2240.35 118.216 2240.35 134.179V348.709C2240.35 364.672 2227.4 377.612 2211.43 377.612H2023.82C2007.85 377.612 1994.91 364.672 1994.91 348.709ZM2211.43 105.276V108.487H2023.82V105.276H2211.43Z" fill="black"/>
<path d="M2013.54 147.668C2013.54 140.573 2019.29 134.822 2026.39 134.822H2077.15C2084.25 134.822 2090 140.573 2090 147.668V270.99C2090 278.085 2084.25 283.836 2077.15 283.836H2026.39C2019.29 283.836 2013.54 278.085 2013.54 270.99V147.668Z" fill="#ECF0FF"/>
<path d="M2137.54 147.668C2137.54 140.573 2143.3 134.822 2150.39 134.822H2201.15C2208.25 134.822 2214 140.573 2214 147.668V270.99C2214 278.085 2208.25 283.836 2201.15 283.836H2150.39C2143.3 283.836 2137.54 278.085 2137.54 270.99V147.668Z" fill="#ECF0FF"/>
<path d="M2115.38 108.487L2115.38 374.401H2112.17L2112.17 108.487H2115.38Z" fill="black"/>
<path d="M2224.28 382.108H2009.04V375.685H2224.28V382.108Z" fill="#FFDE21"/>
<path d="M2138.83 291.544C2138.83 295.8 2135.38 299.251 2131.12 299.251C2126.86 299.251 2123.41 295.8 2123.41 291.544C2123.41 287.287 2126.86 283.836 2131.12 283.836C2135.38 283.836 2138.83 287.287 2138.83 291.544Z" fill="#D9E6DC"/>
<path d="M2137.54 291.544C2137.54 287.996 2134.67 285.121 2131.12 285.121C2127.57 285.121 2124.69 287.996 2124.69 291.544C2124.69 295.091 2127.57 297.967 2131.12 297.967V299.251C2126.86 299.251 2123.41 295.8 2123.41 291.544C2123.41 287.287 2126.86 283.836 2131.12 283.836C2135.38 283.836 2138.83 287.287 2138.83 291.544C2138.83 295.8 2135.38 299.251 2131.12 299.251V297.967C2134.67 297.967 2137.54 295.091 2137.54 291.544Z" fill="black"/>
<path d="M642.523 227.995C632.853 227.995 625.013 220.308 625.013 210.825L625.013 139.569C625.013 130.087 632.853 122.399 642.523 122.399L827.257 122.399C836.927 122.399 844.767 130.087 844.767 139.569L844.767 210.825C844.767 220.308 836.927 227.995 827.257 227.995L642.523 227.995Z" fill="#ECF0FF"/>
<path d="M825.752 233.703L641.175 233.703C629.097 233.703 619.306 223.856 619.306 211.708L623.68 211.708L623.686 212.163C623.925 221.671 631.664 229.304 641.175 229.304L825.752 229.304L826.204 229.298C835.657 229.057 843.247 221.274 843.247 211.708L843.247 138.686L843.241 138.232C843.006 128.875 835.507 121.334 826.204 121.096L825.752 121.09L641.175 121.09C631.664 121.09 623.925 128.724 623.686 138.232L623.68 138.686L619.306 138.686C619.306 126.539 629.097 116.691 641.175 116.691L825.752 116.691C837.83 116.691 847.621 126.539 847.621 138.686L847.621 211.708C847.621 223.856 837.83 233.703 825.752 233.703ZM619.306 138.686L623.68 138.686L623.68 211.708L619.306 211.708L619.306 138.686Z" fill="black"/>
<path d="M1749.85 227.995C1740.18 227.995 1732.34 220.308 1732.34 210.825L1732.34 139.569C1732.34 130.087 1740.18 122.399 1749.85 122.399L1934.59 122.399C1944.26 122.399 1952.1 130.087 1952.1 139.569L1952.1 210.825C1952.1 220.308 1944.26 227.995 1934.59 227.995L1749.85 227.995Z" fill="#ECF0FF"/>
<path d="M1933.08 233.703L1748.51 233.703C1736.43 233.703 1726.64 223.856 1726.64 211.708L1731.01 211.708L1731.02 212.163C1731.26 221.671 1738.99 229.304 1748.51 229.304L1933.08 229.304L1933.53 229.298C1942.99 229.057 1950.58 221.274 1950.58 211.708L1950.58 138.686L1950.57 138.232C1950.34 128.875 1942.84 121.334 1933.53 121.096L1933.08 121.09L1748.51 121.09C1738.99 121.09 1731.26 128.724 1731.02 138.232L1731.01 138.686L1726.64 138.686C1726.64 126.539 1736.43 116.691 1748.51 116.691L1933.08 116.691C1945.16 116.691 1954.95 126.539 1954.95 138.686L1954.95 211.708C1954.95 223.856 1945.16 233.703 1933.08 233.703ZM1726.64 138.686L1731.01 138.686L1731.01 211.708L1726.64 211.708L1726.64 138.686Z" fill="black"/>
<path d="M1196.19 227.995C1186.52 227.995 1178.68 220.308 1178.68 210.825L1178.68 139.569C1178.68 130.087 1186.52 122.399 1196.19 122.399L1380.92 122.399C1390.59 122.399 1398.43 130.087 1398.43 139.569L1398.43 210.825C1398.43 220.308 1390.59 227.995 1380.92 227.995L1196.19 227.995Z" fill="#ECF0FF"/>
<path d="M1379.42 233.703L1194.84 233.703C1182.76 233.703 1172.97 223.856 1172.97 211.708L1177.35 211.708L1177.35 212.163C1177.59 221.671 1185.33 229.304 1194.84 229.304L1379.42 229.304L1379.87 229.298C1389.32 229.057 1396.91 221.274 1396.91 211.708L1396.91 138.686L1396.91 138.232C1396.67 128.875 1389.17 121.334 1379.87 121.096L1379.42 121.09L1194.84 121.09C1185.33 121.09 1177.59 128.724 1177.35 138.232L1177.35 138.686L1172.97 138.686C1172.97 126.539 1182.76 116.691 1194.84 116.691L1379.42 116.691C1391.5 116.691 1401.29 126.539 1401.29 138.686L1401.29 211.708C1401.29 223.856 1391.5 233.703 1379.42 233.703ZM1172.97 138.686L1177.35 138.686L1177.35 211.708L1172.97 211.708L1172.97 138.686Z" fill="black"/>
<path d="M2511.92 206.342C2486.45 206.342 2465.81 185.697 2465.81 160.23L2465.81 6.71976L2466.65 6.69766C2510.41 5.54984 2546.5 40.7103 2546.5 84.4846L2546.5 171.758C2546.5 190.859 2531.02 206.342 2511.92 206.342Z" fill="#ECF0FF"/>
<path d="M2462 3.82977L2467 3.69877C2512.74 2.49932 2550.47 39.2519 2550.47 85.0084L2550.47 171.432C2550.47 192.711 2533.22 209.96 2511.94 209.96C2484.36 209.96 2462 187.6 2462 160.016L2466.28 160.016C2466.28 185.235 2486.73 205.68 2511.94 205.68C2530.86 205.68 2546.19 190.346 2546.19 171.432L2546.19 85.0084C2546.19 42.3374 2511.56 7.93263 2469.14 7.95182L2467.11 7.97691L2466.28 7.9992L2466.28 160.016L2462 160.016L2462 3.82977Z" fill="black"/>
<path d="M128.341 205.164C126.906 205.164 125.826 203.856 126.099 202.447L153.109 62.8937C157.006 42.761 174.632 28.2192 195.138 28.2192L223.178 28.2192C224.439 28.2192 225.461 29.2414 225.461 30.5024L225.461 202.881C225.461 204.142 224.439 205.164 223.178 205.164L128.341 205.164Z" fill="#ECF0FF"/>
<path d="M128.34 209.445C124.343 209.445 121.305 205.915 121.832 202.012L121.897 201.632L148.906 62.079C153.193 39.9336 172.581 23.9383 195.138 23.9381L223.178 23.9381C226.803 23.9385 229.741 26.8769 229.742 30.5016L229.742 202.881C229.741 206.506 226.803 209.444 223.178 209.445L128.34 209.445ZM223.178 205.164C224.36 205.163 225.332 204.266 225.45 203.115L225.461 202.881L225.461 30.5016L225.45 30.2675C225.34 29.1939 224.486 28.3398 223.412 28.2302L223.178 28.219L195.138 28.219C175.272 28.2192 158.109 41.8661 153.513 61.0227L153.109 62.8928L126.099 202.446C125.827 203.855 126.905 205.164 128.34 205.164L223.178 205.164Z" fill="black"/>
<path d="M39.955 205.164C65.1741 205.164 85.6182 184.72 85.6182 159.501L85.6182 7.4837L84.7847 7.46183C41.4512 6.32518 5.70768 41.1434 5.70768 84.4919L5.70767 170.916C5.70767 189.831 21.0407 205.164 39.955 205.164Z" fill="#ECF0FF"/>
<path d="M89.8989 3.31414L84.8962 3.18315C39.1555 1.9837 1.42662 38.7362 1.42662 84.4927L1.42661 170.917C1.42662 192.195 18.6763 209.445 39.9549 209.445C67.5382 209.445 89.8989 187.084 89.8989 159.501L85.618 159.501C85.618 184.72 65.1739 205.164 39.9549 205.164C21.0406 205.164 5.70754 189.831 5.70754 170.917L5.70754 84.4927C5.70754 41.8217 40.3425 7.417 82.7585 7.4362L84.7847 7.46129L85.618 7.48358L85.618 159.501L89.8989 159.501L89.8989 3.31414Z" fill="black"/>
<path d="M747.733 286.501C747.733 292.018 741.344 296.49 733.463 296.49C725.582 296.49 719.193 292.018 719.193 286.501C719.193 280.985 725.582 276.512 733.463 276.512C741.344 276.512 747.733 280.985 747.733 286.501Z" fill="#FF2C2C"/>
<path d="M1301.54 286.659C1301.54 292.176 1295.15 296.648 1287.27 296.648C1279.39 296.648 1273 292.176 1273 286.659C1273 281.143 1279.39 276.67 1287.27 276.67C1295.15 276.67 1301.54 281.143 1301.54 286.659Z" fill="#FF2C2C"/>
<path d="M1855.54 286.659C1855.54 292.176 1849.15 296.648 1841.27 296.648C1833.39 296.648 1827 292.176 1827 286.659C1827 281.143 1833.39 276.67 1841.27 276.67C1849.15 276.67 1855.54 281.143 1855.54 286.659Z" fill="#FF2C2C"/>
</svg>
