<?xml version="1.0" encoding="UTF-8"?>
<svg id="Calque_2" data-name="Calque 2" xmlns="http://www.w3.org/2000/svg" width="561.97mm" height="97.29mm" viewBox="0 0 1593 275.77">
  <path d="M88.82,32.53h1455.58c12.18,0,22.05,9.87,22.05,22.05v195.37H23.72V96.99c0-35.58,29.18-64.46,65.1-64.46Z" style="fill: #fff;"/>
  <rect x="83.05" y="18.97" width="1426.76" height="45.35" style="fill: #ff1313;"/>
  <path d="M147.25,22.4l-87.98,2.73-35.55,108.84v115.98l109.1-33.6c8.4-2.59,14.43-13.75,14.43-26.7V22.4Z" style="fill: #ff1313;"/>
  <path d="M1438.55,39.53l114.97,4.13,13.78,98.3-.85,107.99-112.86-32.12c-8.72-2.51-15.03-13.91-15.03-27.19V39.53h-.01Z" style="fill: #ff1313;"/>
  <path d="M402.36,166.59c-5.79,0-10.48-4.6-10.48-10.28v-42.66c0-5.68,4.69-10.28,10.48-10.28h110.61c5.79,0,10.48,4.6,10.48,10.28v42.66c0,5.68-4.69,10.28-10.48,10.28h-110.61Z" style="fill: #ecf0ff;"/>
  <g>
    <path d="M227.62,101.47c0-8.5,6.89-15.38,15.39-15.38h112.33c8.5,0,15.39,6.89,15.39,15.38v128.45c0,8.5-6.89,15.38-15.39,15.38h-112.33c-8.5,0-15.39-6.89-15.39-15.38V101.47Z" style="fill: #ff2c2c;"/>
    <path d="M365.34,249.91h-128.88v-3.85h128.88v3.85Z" style="fill: #ffde21;"/>
    <path d="M314.18,195.69c0,2.55-2.07,4.61-4.62,4.61s-4.62-2.07-4.62-4.61,2.07-4.62,4.62-4.62,4.62,2.07,4.62,4.62Z" style="fill: #d9e6dc;"/>
    <path d="M300.14,86.08v159.21h-1.92V86.08h1.92Z"/>
    <path d="M245.77,186.69c-1.8,0-3.25-6.07-3.25-13.55v-56.25c0-7.49,1.46-13.55,3.25-13.55h34.31c1.8,0,3.25,6.07,3.25,13.55v56.25c0,7.49-1.46,13.55-3.25,13.55h-34.31Z" style="fill: #ecf0ff;"/>
    <path d="M321.27,186.69c-1.8,0-3.25-6.18-3.25-13.79v-57.25c0-7.62,1.46-13.79,3.25-13.79h34.31c1.8,0,3.25,6.18,3.25,13.79v57.25c0,7.62-1.46,13.79-3.25,13.79h-34.31Z" style="fill: #ecf0ff;"/>
  </g>
  <g>
    <path d="M556.64,101.5c0-8.5,6.89-15.38,15.39-15.38h112.33c8.5,0,15.39,6.89,15.39,15.38v128.45c0,8.5-6.89,15.38-15.39,15.38h-112.33c-8.5,0-15.39-6.89-15.39-15.38V101.5Z" style="fill: #ff2c2c;"/>
    <path d="M694.37,249.94h-128.88v-3.85h128.88v3.85Z" style="fill: #ffde21;"/>
    <path d="M643.2,195.72c0,2.55-2.07,4.61-4.62,4.61s-4.62-2.07-4.62-4.61,2.07-4.62,4.62-4.62,4.62,2.07,4.62,4.62Z" style="fill: #d9e6dc;"/>
    <path d="M629.16,86.11v159.21h-1.92V86.11h1.92Z"/>
    <path d="M574.79,186.72c-1.8,0-3.25-6.07-3.25-13.55v-56.25c0-7.49,1.46-13.55,3.25-13.55h34.31c1.8,0,3.25,6.07,3.25,13.55v56.25c0,7.49-1.46,13.55-3.25,13.55h-34.31Z" style="fill: #ecf0ff;"/>
    <path d="M650.29,186.72c-1.8,0-3.25-6.18-3.25-13.79v-57.25c0-7.62,1.46-13.79,3.25-13.79h34.31c1.8,0,3.25,6.18,3.25,13.79v57.25c0,7.62-1.46,13.79-3.25,13.79h-34.31Z" style="fill: #ecf0ff;"/>
  </g>
  <g>
    <path d="M897.47,100.05c0-8.5,6.89-15.38,15.39-15.38h112.33c8.5,0,15.39,6.89,15.39,15.38v128.45c0,8.5-6.89,15.38-15.39,15.38h-112.33c-8.5,0-15.39-6.89-15.39-15.38V100.05h0Z" style="fill: #ff2c2c;"/>
    <path d="M1035.19,248.5h-128.88v-3.85h128.88v3.85Z" style="fill: #ffde21;"/>
    <path d="M984.03,194.28c0,2.55-2.07,4.61-4.62,4.61s-4.62-2.07-4.62-4.61,2.07-4.62,4.62-4.62,4.62,2.07,4.62,4.62Z" style="fill: #d9e6dc;"/>
    <path d="M969.99,84.67v159.21h-1.92V84.67h1.92Z"/>
    <path d="M915.62,185.27c-1.8,0-3.25-6.07-3.25-13.55v-56.25c0-7.49,1.46-13.55,3.25-13.55h34.31c1.8,0,3.25,6.07,3.25,13.55v56.25c0,7.49-1.46,13.55-3.25,13.55h-34.31Z" style="fill: #ecf0ff;"/>
    <path d="M991.12,185.27c-1.8,0-3.25-6.18-3.25-13.79v-57.25c0-7.62,1.46-13.79,3.25-13.79h34.31c1.8,0,3.25,6.18,3.25,13.79v57.25c0,7.62-1.46,13.79-3.25,13.79h-34.31Z" style="fill: #ecf0ff;"/>
  </g>
  <g>
    <path d="M1226.77,101.5c0-8.5,6.89-15.38,15.39-15.38h112.33c8.5,0,15.39,6.89,15.39,15.38v128.45c0,8.5-6.89,15.38-15.39,15.38h-112.33c-8.5,0-15.39-6.89-15.39-15.38V101.5Z" style="fill: #ff2c2c;"/>
    <path d="M1364.5,249.94h-128.88v-3.85h128.88v3.85Z" style="fill: #ffde21;"/>
    <path d="M1313.33,195.72c0,2.55-2.07,4.61-4.62,4.61s-4.62-2.07-4.62-4.61,2.07-4.62,4.62-4.62,4.62,2.07,4.62,4.62Z" style="fill: #d9e6dc;"/>
    <path d="M1299.29,86.11v159.21h-1.92V86.11h1.92Z"/>
    <path d="M1244.92,186.72c-1.8,0-3.25-6.07-3.25-13.55v-56.25c0-7.49,1.46-13.55,3.25-13.55h34.31c1.8,0,3.25,6.07,3.25,13.55v56.25c0,7.49-1.46,13.55-3.25,13.55h-34.31Z" style="fill: #ecf0ff;"/>
    <path d="M1320.42,186.72c-1.8,0-3.25-6.18-3.25-13.79v-57.25c0-7.62,1.46-13.79,3.25-13.79h34.31c1.8,0,3.25,6.18,3.25,13.79v57.25c0,7.62-1.46,13.79-3.25,13.79h-34.31Z" style="fill: #ecf0ff;"/>
  </g>
  <path d="M83.05,19.06l-1.68-.05-.67-.02C44.89,17.99,15.35,48.48,15.35,86.44v73.63c0,17.12,13.1,31,29.26,31,21.23,0,38.44-18.23,38.44-40.72V19.06Z" style="fill: #ecf0ff;"/>
  <ellipse cx="453.67" cy="186.19" rx="8.54" ry="5.98" style="fill: #ff2c2c;"/>
  <path d="M163.74,185.79c-1.32,0-2.31-1.19-2.06-2.48l12.8-65.62c1.94-9.94,10.71-17.12,20.92-17.12h13.29c1.16,0,2.1.93,2.1,2.08v81.06c0,1.15-.94,2.08-2.1,2.08h-44.95Z" style="fill: #ecf0ff;"/>
  <path d="M1509.81,18.89l1.68-.05.67-.02c35.81-1,65.35,29.49,65.35,67.45v73.63c0,17.12-13.1,31-29.26,31-21.23,0-38.44-18.23-38.44-40.72V18.89h0Z" style="fill: #ecf0ff;"/>
  <path d="M736.75,166.59c-5.79,0-10.48-4.6-10.48-10.28v-42.66c0-5.68,4.69-10.28,10.48-10.28h110.61c5.79,0,10.48,4.6,10.48,10.28v42.66c0,5.68-4.69,10.28-10.48,10.28h-110.61Z" style="fill: #ecf0ff;"/>
  <ellipse cx="792.05" cy="186.37" rx="8.54" ry="5.98" style="fill: #ff2c2c;"/>
  <ellipse cx="1142.68" cy="186.05" rx="8.54" ry="5.98" style="fill: #ff2c2c;"/>
  <path d="M1087.37,165.27c-5.79,0-10.48-4.6-10.48-10.28v-42.66c0-5.68,4.69-10.28,10.48-10.28h110.61c5.79,0,10.48,4.6,10.48,10.28v42.66c0,5.68-4.69,10.28-10.48,10.28h-110.61Z" style="fill: #ecf0ff;"/>
  <path d="M1432.15,186.91c1.32,0,2.31-1.19,2.06-2.48l-12.8-65.62c-1.94-9.94-10.71-17.12-20.92-17.12h-13.29c-1.16,0-2.1.93-2.1,2.08v81.06c0,1.15.94,2.08,2.1,2.08h44.95Z" style="fill: #ecf0ff;"/>
</svg>