<?xml version="1.0" encoding="UTF-8"?>
<svg id="Calque_2" data-name="Calque 2" xmlns="http://www.w3.org/2000/svg" viewBox="0 0 978.11 910.54">
  <defs>
    <style>
      .cls-1 {
        fill: #ffde21;
      }

      .cls-2 {
        fill: #ffe88a;
      }

      .cls-3 {
        fill: #fff0a0;
      }

      .cls-4 {
        fill: #6b3a8b;
      }
    </style>
  </defs>
  <g id="Calque_1-2" data-name="Calque 1">
    <g>
      <g>
        <path class="cls-2" d="M784.6,50.95l-23.05-37.56c-3.55-5.78.61-13.21,7.39-13.21h38.82c6.2,0,10.4,6.32,8,12.03l-15.77,37.56c-2.73,6.51-11.69,7.2-15.39,1.18Z"/>
        <path class="cls-2" d="M786.39,66.14l-55.62-30.71c-2.37-1.31-2.39-4.71-.03-6.05l48.69-27.61c2.15-1.22,4.86.15,5.15,2.6l6.94,58.32c.33,2.8-2.64,4.81-5.11,3.44Z"/>
        <path class="cls-2" d="M791.26,80.9l-17.62-61.05c-.75-2.6,1.64-5.02,4.25-4.3l53.95,14.91c2.39.66,3.33,3.54,1.8,5.48l-36.33,46.14c-1.75,2.22-5.27,1.53-6.05-1.18Z"/>
      </g>
      <g>
        <path class="cls-2" d="M183.76,50.77l-12.99-37.56c-2-5.78.34-13.21,4.16-13.21h21.87c3.49,0,5.86,6.32,4.5,12.03l-8.88,37.56c-1.54,6.51-6.59,7.2-8.67,1.18Z"/>
        <path class="cls-2" d="M184.77,65.96l-31.33-30.71c-1.34-1.31-1.35-4.71-.02-6.05L180.84,1.6c1.21-1.22,2.74.15,2.9,2.6l3.91,58.32c.19,2.8-1.49,4.81-2.88,3.44Z"/>
        <path class="cls-2" d="M187.51,80.72l-9.92-61.05c-.42-2.6.92-5.02,2.39-4.3l30.39,14.91c1.34.66,1.88,3.54,1.01,5.48l-20.46,46.14c-.98,2.22-2.97,1.53-3.41-1.18Z"/>
      </g>
      <path class="cls-1" d="M790.99,59.65c-23.5.86-39.94,35.7-43.74,43.74-2.72,5.76-24.99,52.96,0,83.57,25.97,31.82,87.46,26.7,107.18,0,28.44-38.49-24.88-128.72-63.45-127.31Z"/>
      <path class="cls-1" d="M180.07,31.75c-23.5.86-39.94,35.7-43.74,43.74-2.72,5.76-24.99,52.96,0,83.57,25.97,31.82,87.46,26.7,107.18,0,28.44-38.49-24.88-128.72-63.45-127.31Z"/>
      <path class="cls-3" d="M51.21,378.18c-34.69-147.64-18.39-205.56,0-231.89,50.99-73,155.76,42.96,344.53,0,87.97-20.02,86.53-50.04,156.22-50.27,110.65-.37,134.69,75.27,243.62,73.29,93.97-1.71,144.03-59.23,169.17-22.29,21.23,31.19,5.61,101.67-13.24,161.54"/>
      <path class="cls-1" d="M39.52,910.54c-34.69-426.19-18.39-593.41,0-669.4,50.99-210.73,155.76,124,344.53,0,87.97-57.78,86.53-144.46,156.22-145.13,110.65-1.06,134.69,217.28,243.62,211.57,93.97-4.93,144.03-170.99,169.17-64.34,21.23,90.04,5.61,293.5-13.24,466.32"/>
      <polygon class="cls-4" points="441.72 213.5 441.72 283.86 490.1 267.41 517.9 274.62 517.9 208.94 441.72 213.5"/>
      <polygon class="cls-4" points="443.63 292.77 443.63 363.13 492.01 346.68 519.8 353.89 519.8 288.21 492.17 283.86 443.63 292.77"/>
      <polygon class="cls-4" points="439.42 480.14 439.42 550.49 487.8 534.04 515.6 541.26 515.6 475.58 487.97 471.22 439.42 480.14"/>
      <polygon class="cls-4" points="280.41 484.41 280.41 554.76 328.79 538.31 356.59 545.53 356.59 479.85 328.96 475.49 280.41 484.41"/>
      <polygon class="cls-4" points="163.16 307.82 163.16 378.18 211.54 361.72 239.34 368.94 239.34 303.26 211.71 298.91 163.16 307.82"/>
      <polygon class="cls-4" points="439.42 635.25 439.42 705.6 487.8 689.15 515.6 696.37 515.6 630.69 487.97 626.33 439.42 635.25"/>
      <polygon class="cls-4" points="57.42 431.76 57.42 502.11 88.68 485.66 106.64 492.88 106.64 427.2 57.42 431.76"/>
      <polygon class="cls-4" points="58.65 638.12 58.65 708.47 89.91 692.02 107.87 699.24 107.87 633.56 58.65 638.12"/>
      <polygon class="cls-4" points="58.65 511.03 58.65 581.38 89.91 564.93 107.87 572.15 107.87 506.47 90.02 502.11 58.65 511.03"/>
      <polygon class="cls-4" points="912.92 429.58 912.92 499.94 881.66 483.48 863.7 490.7 863.7 425.02 912.92 429.58"/>
      <polygon class="cls-4" points="911.69 508.85 911.69 579.21 880.42 562.75 862.46 569.97 862.46 504.29 880.32 499.94 911.69 508.85"/>
      <polygon class="cls-4" points="902.65 635.25 902.65 705.6 853.43 696.37 853.43 630.69 871.28 626.33 902.65 635.25"/>
      <path class="cls-3" d="M946.82,395.18l-210.36,1.06c-56.95-5.41-76.59-18.08-163.35-18.06-69.69.01-125.29,16.99-213.26,18.29-188.78,2.79-259.08-4.06-310.07.68-18.39,1.71-60.11,14,0,15.04l197.4-.99c67.41,8.25,83.23,34.4,176.26,34.38,69.69-.02,125.34-33.38,213.31-34.68,188.78-2.79,259.08,4.06,310.07-.68,18.39-1.71,60.11-14,0-15.04Z"/>
      <path class="cls-3" d="M445.69,161.02c-.12-3.02-3.41-7.53-4.84-15.47l-6.05,17.31-2.7.46c2.01,1.62,14.86,3.91,14.83-2.5l-1.24.21Z"/>
      <g>
        <path class="cls-3" d="M418.22,157.5l-2.59-1.08c.83,2.44,10.48,11.23,13.88,5.79l-1.16-.48c1.25-2.16,1.21-6.35,2.86-11.95l-13,7.72Z"/>
        <path class="cls-3" d="M432.5,146.06c-.53,1.3-.94,2.54-1.29,3.72l18.33-10.9c-6.8,1.05-14.51.89-17.04,7.17Z"/>
        <path class="cls-3" d="M460.34,132.47l-10.79,6.42c4.7-.72,8.97-2.02,10.79-6.42Z"/>
      </g>
      <path class="cls-3" d="M843.16,98.69l-22.66,1.06c-6.14-5.41-8.25-18.08-17.6-18.06-7.51.01-13.5,16.99-22.97,18.29-20.33,2.79-27.91-4.06-33.4.68-1.98,1.71-6.48,14,0,15.04l21.26-.99c7.26,8.25,8.97,34.4,18.99,34.38,7.51-.01,13.5-33.38,22.98-34.68,20.33-2.79,27.91,4.06,33.4-.68,1.98-1.71,6.48-14,0-15.04Z"/>
      <path class="cls-3" d="M847.3,155.84l-22.66,1.06c-6.14-5.41-8.25-18.08-17.6-18.06-7.51.01-13.5,16.99-22.97,18.29-20.33,2.79-27.91-4.06-33.4.68-1.98,1.71-6.48,14,0,15.04l21.26-.99c7.26,8.25,8.97,34.4,18.99,34.38,7.51-.01,13.5-33.38,22.98-34.68,20.33-2.79,27.91,4.06,33.4-.68,1.98-1.71,6.48-14,0-15.04Z"/>
      <path class="cls-3" d="M928.32,593.14l-210.36,1.06c-56.95-5.41-76.59-18.08-163.35-18.06-69.69.01-125.29,16.99-213.26,18.29-188.78,2.79-259.08-4.06-310.07.68-18.39,1.71-60.11,14,0,15.04l192.74-.97c72.29,9.64,89.03,42.75,180.97,17.97,77.1-20.78,125.29-16.99,213.26-18.29,188.78-2.79,259.08,4.06,310.07-.68,18.39-1.71,60.11-14,0-15.04Z"/>
      <rect class="cls-4" x="558.97" y="432.61" width="25.85" height="83.74"/>
      <path class="cls-4" d="M584.81,348.26h-25.85v-69.33l9.54-2.85c2.2-.66,4.55-.66,6.76,0l9.54,2.85v69.33Z"/>
      <polygon class="cls-4" points="557.07 199.78 582.91 199.78 582.91 269.1 569.99 262.73 557.07 269.1 557.07 199.78"/>
      <rect class="cls-4" x="388.13" y="479.23" width="25.85" height="83.74"/>
      <path class="cls-4" d="M413.98,378.18h-25.85v-53.38l9.54-2.19c2.2-.51,4.55-.51,6.76,0l9.54,2.19v53.38Z"/>
      <polygon class="cls-4" points="386.23 246.4 412.07 246.4 412.07 315.73 399.15 309.35 386.23 315.73 386.23 246.4"/>
      <polygon class="cls-4" points="233.31 204.33 213.4 206.8 211.19 187.03 230.88 184.84 233.31 204.33"/>
      <polygon class="cls-4" points="273.66 226.34 253.76 228.81 251.55 209.04 271.23 206.84 273.66 226.34"/>
      <polygon class="cls-4" points="302.52 204.33 282.62 206.8 280.41 187.03 300.09 184.84 302.52 204.33"/>
      <polygon class="cls-4" points="804.73 248.3 824.63 250.78 826.84 231.01 807.16 228.81 804.73 248.3"/>
      <polygon class="cls-4" points="764.38 270.31 784.28 272.79 786.49 253.02 766.8 250.82 764.38 270.31"/>
      <polygon class="cls-4" points="735.52 248.3 755.42 250.78 757.63 231.01 737.94 228.81 735.52 248.3"/>
      <polygon class="cls-3" points="160.32 59.85 136.92 83.25 157.19 103.52 171.19 89.52 160.32 59.85"/>
      <polygon class="cls-3" points="194.34 66.58 170.94 89.98 191.21 110.25 205.21 96.25 194.34 66.58"/>
      <polygon class="cls-3" points="228.51 66.58 205.12 89.98 225.39 110.25 239.38 96.25 228.51 66.58"/>
      <polygon class="cls-3" points="154.24 98.69 130.84 122.08 151.11 142.35 165.11 128.36 154.24 98.69"/>
      <polygon class="cls-3" points="188.26 105.42 164.86 128.82 185.13 149.09 199.13 135.09 188.26 105.42"/>
      <polygon class="cls-3" points="222.43 105.42 199.04 128.82 219.31 149.09 233.31 135.09 222.43 105.42"/>
    </g>
  </g>
</svg>