<?xml version="1.0" encoding="UTF-8"?>
<svg id="Calque_2" data-name="Calque 2" xmlns="http://www.w3.org/2000/svg" viewBox="0 0 872.68 1183.05">
  <defs>
    <style>
      .cls-1 {
        fill: #a83228;
      }

      .cls-2 {
        fill: #b56630;
      }

      .cls-3 {
        fill: #f5ead8;
      }

      .cls-4 {
        fill: #f9eede;
      }

      .cls-5 {
        fill: #e8803a;
      }

      .cls-6 {
        opacity: .85;
      }

      .cls-7 {
        fill: #ffc552;
      }
    </style>
  </defs>
  <g id="Calque_1-2" data-name="Calque 1">
    <g>
      <g>
        <path class="cls-3" d="M784.39,315.37c0-30.51-24.74-55.25-55.25-55.25s-55.25,24.74-55.25,55.25c0,18.1,8.71,34.17,22.16,44.25l33.09,54.47c-.65-3.35.54-10.28,3.96-16.9,6.71-12.99,18.32-26.33,27.92-36.71,14.13-10.01,23.36-26.47,23.36-45.11Z"/>
        <circle class="cls-1" cx="728.66" cy="315.64" r="44.74" transform="translate(388.95 1033.4) rotate(-88.09)"/>
        <circle class="cls-1" cx="778.77" cy="321.06" r="4.74"/>
        <circle class="cls-1" cx="777.9" cy="312.15" r="3.49"/>
        <circle class="cls-1" cx="777.31" cy="301.41" r="4.77"/>
        <circle class="cls-1" cx="681.02" cy="329.7" r="4.74"/>
        <circle class="cls-1" cx="678.85" cy="319.43" r="3.49"/>
        <circle class="cls-1" cx="684.98" cy="291.6" r="4.77"/>
        <circle class="cls-1" cx="716.34" cy="268.3" r="3.81"/>
        <circle class="cls-1" cx="723.92" cy="267.03" r="2.93"/>
        <circle class="cls-1" cx="736.55" cy="266.48" r="4.85"/>
        <circle class="cls-1" cx="706.11" cy="272.12" r="3.81"/>
        <circle class="cls-1" cx="699.38" cy="277.13" r="2.93"/>
        <circle class="cls-1" cx="690.84" cy="281.98" r="4.85"/>
        <g>
          <g>
            <polygon class="cls-7" points="728.36 285.87 720.66 292.44 725.58 321 733.51 321.63 738.12 291.75 728.36 285.87"/>
            <polygon class="cls-7" points="730.16 352.88 737.87 346.31 732.94 317.75 725.01 317.12 720.41 347 730.16 352.88"/>
          </g>
          <g>
            <polygon class="cls-7" points="762.65 313.35 756.09 305.63 727.52 310.49 726.88 318.43 756.75 323.09 762.65 313.35"/>
            <polygon class="cls-7" points="695.63 315.01 702.19 322.73 730.76 317.86 731.4 309.93 701.53 305.27 695.63 315.01"/>
          </g>
        </g>
      </g>
      <g>
        <path class="cls-3" d="M636.6,274.92c0-30.51-24.74-55.25-55.25-55.25s-55.25,24.74-55.25,55.25c0,18.1,8.71,34.17,22.16,44.25l33.09,54.47c-.65-3.35.54-10.28,3.96-16.9,6.71-12.99,18.32-26.33,27.92-36.71,14.13-10.01,23.36-26.47,23.36-45.11Z"/>
        <circle class="cls-1" cx="580.87" cy="275.18" r="44.74" transform="translate(286.51 846.58) rotate(-88.09)"/>
        <circle class="cls-1" cx="630.97" cy="280.61" r="4.74"/>
        <circle class="cls-1" cx="630.11" cy="271.7" r="3.49"/>
        <circle class="cls-1" cx="629.52" cy="260.96" r="4.77"/>
        <circle class="cls-1" cx="533.22" cy="289.25" r="4.74"/>
        <circle class="cls-1" cx="531.06" cy="278.97" r="3.49"/>
        <circle class="cls-1" cx="537.19" cy="251.14" r="4.77"/>
        <circle class="cls-1" cx="568.55" cy="227.85" r="3.81"/>
        <circle class="cls-1" cx="576.13" cy="226.58" r="2.93"/>
        <circle class="cls-1" cx="588.76" cy="226.02" r="4.85"/>
        <circle class="cls-1" cx="558.32" cy="231.66" r="3.81"/>
        <circle class="cls-1" cx="551.58" cy="236.68" r="2.93"/>
        <circle class="cls-1" cx="543.05" cy="241.53" r="4.85"/>
        <g>
          <g>
            <polygon class="cls-7" points="580.57 245.41 572.86 251.99 577.79 280.54 585.72 281.17 590.32 251.29 580.57 245.41"/>
            <polygon class="cls-7" points="582.37 312.43 590.08 305.85 585.15 277.29 577.22 276.67 572.62 306.54 582.37 312.43"/>
          </g>
          <g>
            <polygon class="cls-7" points="614.86 272.89 608.3 265.17 579.73 270.04 579.08 277.97 608.95 282.63 614.86 272.89"/>
            <polygon class="cls-7" points="547.84 274.56 554.4 282.27 582.96 277.41 583.61 269.47 553.74 264.81 547.84 274.56"/>
          </g>
        </g>
      </g>
      <g>
        <path class="cls-3" d="M200.48,307.16c0-30.51-24.74-55.25-55.25-55.25s-55.25,24.74-55.25,55.25c0,18.63,9.23,35.1,23.36,45.11,9.6,10.38,21.22,23.72,27.92,36.71,3.42,6.62,4.62,13.55,3.96,16.9l33.09-54.47c13.45-10.08,22.16-26.14,22.16-44.25Z"/>
        <circle class="cls-1" cx="145.71" cy="307.43" r="44.74" transform="translate(-10.15 5.02) rotate(-1.91)"/>
        <circle class="cls-1" cx="95.6" cy="312.85" r="4.74"/>
        <circle class="cls-1" cx="96.47" cy="303.94" r="3.49"/>
        <circle class="cls-1" cx="97.06" cy="293.2" r="4.77"/>
        <circle class="cls-1" cx="193.35" cy="321.49" r="4.74"/>
        <circle class="cls-1" cx="195.52" cy="311.22" r="3.49"/>
        <circle class="cls-1" cx="189.39" cy="283.39" r="4.77"/>
        <circle class="cls-1" cx="158.03" cy="260.09" r="3.81"/>
        <circle class="cls-1" cx="150.45" cy="258.82" r="2.93"/>
        <circle class="cls-1" cx="137.82" cy="258.27" r="4.85"/>
        <circle class="cls-1" cx="168.26" cy="263.91" r="3.81"/>
        <circle class="cls-1" cx="174.99" cy="268.92" r="2.93"/>
        <circle class="cls-1" cx="183.53" cy="273.77" r="4.85"/>
        <g>
          <g>
            <polygon class="cls-7" points="146.01 277.66 153.71 284.23 148.79 312.79 140.85 313.42 136.25 283.54 146.01 277.66"/>
            <polygon class="cls-7" points="144.21 344.67 136.5 338.1 141.43 309.54 149.36 308.91 153.96 338.79 144.21 344.67"/>
          </g>
          <g>
            <polygon class="cls-7" points="111.72 305.14 118.28 297.42 146.85 302.28 147.49 310.22 117.62 314.88 111.72 305.14"/>
            <polygon class="cls-7" points="178.74 306.8 172.18 314.52 143.61 309.65 142.97 301.72 172.84 297.06 178.74 306.8"/>
          </g>
        </g>
      </g>
      <g>
        <path class="cls-3" d="M348.27,266.71c0-30.51-24.74-55.25-55.25-55.25s-55.25,24.74-55.25,55.25c0,18.63,9.23,35.1,23.36,45.11,9.6,10.38,21.22,23.72,27.92,36.71,3.42,6.62,4.62,13.55,3.96,16.9l33.09-54.47c13.45-10.08,22.16-26.14,22.16-44.25Z"/>
        <circle class="cls-1" cx="293.5" cy="266.97" r="44.74" transform="translate(-8.72 9.91) rotate(-1.91)"/>
        <circle class="cls-1" cx="243.4" cy="272.4" r="4.74"/>
        <circle class="cls-1" cx="244.26" cy="263.49" r="3.49"/>
        <circle class="cls-1" cx="244.85" cy="252.75" r="4.77"/>
        <circle class="cls-1" cx="341.15" cy="281.04" r="4.74"/>
        <circle class="cls-1" cx="343.31" cy="270.76" r="3.49"/>
        <circle class="cls-1" cx="337.18" cy="242.93" r="4.77"/>
        <circle class="cls-1" cx="305.82" cy="219.64" r="3.81"/>
        <circle class="cls-1" cx="298.24" cy="218.37" r="2.93"/>
        <circle class="cls-1" cx="285.61" cy="217.81" r="4.85"/>
        <circle class="cls-1" cx="316.05" cy="223.45" r="3.81"/>
        <circle class="cls-1" cx="322.79" cy="228.47" r="2.93"/>
        <circle class="cls-1" cx="331.32" cy="233.32" r="4.85"/>
        <g>
          <g>
            <polygon class="cls-7" points="293.8 237.2 301.51 243.78 296.58 272.33 288.65 272.96 284.04 243.08 293.8 237.2"/>
            <polygon class="cls-7" points="292 304.22 284.29 297.64 289.22 269.08 297.15 268.45 301.75 298.33 292 304.22"/>
          </g>
          <g>
            <polygon class="cls-7" points="259.51 264.68 266.07 256.96 294.64 261.83 295.28 269.76 265.41 274.42 259.51 264.68"/>
            <polygon class="cls-7" points="326.53 266.34 319.97 274.06 291.41 269.2 290.76 261.26 320.63 256.6 326.53 266.34"/>
          </g>
        </g>
      </g>
      <g>
        <path class="cls-5" d="M0,1183.05l203.33-.33s-22.44-798.77-56.86-798.71c-33.91.06-146.47,799.05-146.47,799.05Z"/>
        <path class="cls-5" d="M201.91,1162.87l157.19-13.83s-29.75-795.52-64.09-793.18-93.1,807.01-93.1,807.01Z"/>
        <path class="cls-5" d="M870.35,1180.41l-203.33-.33s22.44-798.77,56.86-798.71c33.91.06,146.47,799.05,146.47,799.05Z"/>
        <path class="cls-5" d="M668.45,1160.22l-157.19-13.83s29.75-795.52,64.09-793.18,93.1,807.01,93.1,807.01Z"/>
        <path class="cls-5" d="M537.26,960.4l-203.33-.33s67.25-798.77,101.66-798.71c33.91.06,101.66,799.05,101.66,799.05Z"/>
        <polygon class="cls-4" points="436.43 870.78 872.68 1180.31 .18 1180.31 436.43 870.78"/>
        <g class="cls-6">
          <g>
            <polygon class="cls-3" points="432.98 0 406.98 22.18 423.59 118.52 450.36 120.64 465.88 19.84 432.98 0"/>
            <polygon class="cls-3" points="439.05 226.08 465.04 203.89 448.43 107.56 421.66 105.44 406.14 206.23 439.05 226.08"/>
          </g>
          <g>
            <polygon class="cls-3" points="548.64 92.7 526.51 66.66 430.14 83.08 427.96 109.84 528.73 125.57 548.64 92.7"/>
            <polygon class="cls-3" points="322.55 98.32 344.68 124.36 441.05 107.94 443.22 81.18 342.46 65.45 322.55 98.32"/>
          </g>
        </g>
        <rect class="cls-2" x="139.09" y="846.11" width="12.18" height="159.86"/>
        <rect class="cls-2" x="120.09" y="860.25" width="12.18" height="159.86"/>
        <rect class="cls-2" x="158.09" y="822.89" width="12.18" height="159.86"/>
        <rect class="cls-2" x="562.35" y="762.74" width="12.18" height="159.86" transform="translate(1136.87 1685.34) rotate(-180)"/>
        <rect class="cls-2" x="581.35" y="776.87" width="12.18" height="159.86" transform="translate(1174.87 1713.6) rotate(-180)"/>
        <rect class="cls-2" x="543.35" y="739.52" width="12.18" height="159.86" transform="translate(1098.87 1638.9) rotate(-180)"/>
        <rect class="cls-2" x="740.79" y="505.32" width="7.47" height="98.05" transform="translate(1489.05 1108.69) rotate(-180)"/>
        <rect class="cls-2" x="729.14" y="491.08" width="7.47" height="98.05" transform="translate(1465.74 1080.21) rotate(-180)"/>
        <rect class="cls-2" x="401.21" y="390.57" width="18.89" height="18.89"/>
        <rect class="cls-2" x="426.15" y="377.47" width="18.89" height="18.89"/>
        <rect class="cls-2" x="394.68" y="422" width="21.91" height="21.91"/>
        <rect class="cls-2" x="424.22" y="414.08" width="21.91" height="21.91"/>
        <rect class="cls-2" x="261.3" y="591.36" width="18.89" height="18.89"/>
        <rect class="cls-2" x="254.78" y="622.8" width="21.91" height="21.91"/>
        <rect class="cls-2" x="284.32" y="614.88" width="21.91" height="21.91"/>
        <rect class="cls-2" x="759.6" y="652.93" width="18.89" height="18.89" transform="translate(1538.1 1324.76) rotate(-180)"/>
        <rect class="cls-2" x="734.66" y="639.84" width="18.89" height="18.89" transform="translate(1488.22 1298.57) rotate(-180)"/>
        <rect class="cls-2" x="763.11" y="684.37" width="21.91" height="21.91" transform="translate(1548.13 1390.65) rotate(-180)"/>
        <rect class="cls-2" x="733.57" y="676.45" width="21.91" height="21.91" transform="translate(1489.05 1374.81) rotate(-180)"/>
        <g class="cls-6">
          <g>
            <polygon class="cls-4" points="434.13 770.22 419.58 782.63 428.87 836.56 443.86 837.75 452.55 781.33 434.13 770.22"/>
            <polygon class="cls-4" points="437.53 896.77 452.08 884.35 442.78 830.42 427.8 829.24 419.11 885.66 437.53 896.77"/>
          </g>
          <g>
            <polygon class="cls-4" points="498.87 822.11 486.48 807.53 432.54 816.72 431.32 831.7 487.73 840.51 498.87 822.11"/>
            <polygon class="cls-4" points="372.31 825.25 384.7 839.83 438.65 830.64 439.86 815.66 383.46 806.86 372.31 825.25"/>
          </g>
        </g>
      </g>
    </g>
  </g>
</svg>